<svg width="94" height="32" viewBox="0 0 94 32" fill="none" xmlns="http://www.w3.org/2000/svg"><path d="M13.2322 4.18154C12.2923 4.18154 11.7482 4.602 11.5503 5.44292L8.26083 16.7459L4.67454 4.18154H0.865656L6.67792 21H9.94268L15.7055 4.18154H13.2322ZM26.4732 16.9932H24.0494C23.6042 16.9932 23.2332 17.1416 22.9364 17.4632C22.2934 18.0815 21.5761 18.403 20.8094 18.403C19.2017 18.403 18.3361 17.389 18.2124 15.3856H26.6711C26.9184 10.2659 24.9645 7.71836 20.8094 7.71836C16.8274 7.74309 14.824 9.96907 14.824 14.421C14.824 18.873 16.8026 21.1731 20.7599 21.2968C23.9752 21.2968 25.756 19.7633 26.4732 16.9932ZM20.7599 10.4143C22.1697 10.4143 22.9859 11.3046 23.1837 13.036H18.2619C18.5092 11.3046 19.3501 10.4143 20.7599 10.4143ZM34.1432 18.3536C32.3624 18.3536 31.472 17.0922 31.3978 14.5694C31.3978 11.923 32.3129 10.6121 34.1926 10.6121C36.0724 10.6121 36.9875 11.923 36.9628 14.5694C36.8638 17.0922 35.924 18.3536 34.1432 18.3536ZM33.2281 21.2473C34.8604 21.2473 36.1218 20.6043 36.9628 19.3182C36.9628 20.6785 36.9628 20.6537 36.9628 20.6537C36.9628 22.6818 36.0724 23.6959 34.341 23.6959C32.9807 23.6959 32.214 23.2507 31.9914 22.3109H28.3557C29.1224 25.081 31.0021 26.466 33.9701 26.466C38.1499 26.3918 40.2275 24.7347 40.2275 21.4452V13.7038C40.2275 9.7712 38.1747 7.84202 34.0937 7.86676C30.0375 7.94096 28.0094 10.1175 28.0094 14.4705C28.0094 18.9719 29.7407 21.2473 33.2281 21.2473ZM46.3576 18.5762C45.3188 18.5762 44.7747 18.0815 44.7005 17.0427C44.7005 16.0781 45.3683 15.4598 46.6792 15.2125C47.6438 15.0146 48.5341 14.7425 49.3009 14.421V15.6329C49.3009 17.4879 48.1879 18.5762 46.3576 18.5762ZM47.1244 10.4143C48.4847 10.4143 49.1772 10.7853 49.2514 11.5272C49.2514 12.2445 48.5341 12.665 47.1244 12.8381C43.8101 13.1596 41.5347 14.0006 41.4605 17.1416C41.4605 20.0354 43.637 21.4947 46.7781 21.2473C50.3149 21 52.4914 19.3924 52.4914 15.7813V11.3294C52.4172 8.90554 50.587 7.71836 46.976 7.71836C43.9585 7.71836 42.2519 8.90554 41.8562 11.3294H45.1457C45.3188 10.7111 45.9619 10.4143 47.1244 10.4143ZM66.9367 9.59807C66.9367 6.08598 65.0817 4.18154 61.5201 4.18154H55.8068C54.8422 4.18154 54.0755 5.02246 54.0755 5.98705V21H57.5134V15.0146H61.7675C65.1312 15.0146 66.9367 12.9123 66.9367 9.59807ZM57.5629 11.9724V7.10003H61.0749C62.6826 7.10003 63.4988 7.91622 63.4988 9.5486C63.4988 11.181 62.6331 11.9972 60.9018 11.9724H57.5629ZM73.0712 18.5762C72.0325 18.5762 71.4883 18.0815 71.4141 17.0427C71.4141 16.0781 72.0819 15.4598 73.3928 15.2125C74.3574 15.0146 75.2477 14.7425 76.0145 14.421V15.6329C76.0145 17.4879 74.9015 18.5762 73.0712 18.5762ZM73.838 10.4143C75.1983 10.4143 75.8908 10.7853 75.965 11.5272C75.965 12.2445 75.2477 12.665 73.838 12.8381C70.5237 13.1596 68.2483 14.0006 68.1741 17.1416C68.1741 20.0354 70.3506 21.4947 73.4917 21.2473C77.0285 21 79.205 19.3924 79.205 15.7813V11.3294C79.1308 8.90554 77.3006 7.71836 73.6896 7.71836C70.6721 7.71836 68.9656 8.90554 68.5698 11.3294H71.8593C72.0325 10.7111 72.6755 10.4143 73.838 10.4143ZM82.1494 23.3249V26.0208C82.2484 26.095 82.6936 26.1197 83.5345 26.1197C86.2551 26.1197 87.0466 25.3777 87.838 23.226L93.0072 7.91622H90.7071C89.8661 7.91622 89.3467 8.31195 89.1489 9.07868L86.8734 16.9932L84.2765 7.91622H80.5418L84.9937 20.7032C85.5131 22.4345 84.8701 23.3249 83.0645 23.3249H82.1494Z" fill="#FFFFFF"></path></svg>